# xmcd CD database file
#
# Track frame offsets:
#	150
#	21606
#	41808
#	60059
#	80400
#	96422
#	117181
#	138637
#	154381
#	176255
#	193113
#	214429
#
# Disc length: 3133 seconds
#
# Revision: 0
# Processed by: cddbd v1.5.2PL0 Copyright (c) Steve Scherf et al.
# Submitted via: jetAudio 7
#
DISCID=ad0c3b0c
DTITLE=張穎 - 風塵醉笛
DYEAR=1900
DGENRE=장르 없음
TTITLE0=讓我愛你
TTITLE1=丁香花
TTITLE2=你的眼神
TTITLE3=無所謂
TTITLE4=在他鄕
TTITLE5=特別的愛給特別的你
TTITLE6=你怎麽捨得我難過
TTITLE7=戀戀風塵
TTITLE8=完美的生活
TTITLE9=我是不是你最疼愛的人
TTITLE10=玻璃心
TTITLE11=愛情的故事
EXTD=
EXTT0=
EXTT1=
EXTT2=
EXTT3=
EXTT4=
EXTT5=
EXTT6=
EXTT7=
EXTT8=
EXTT9=
EXTT10=
EXTT11=
PLAYORDER=
